<svg xmlns="http://www.w3.org/2000/svg" width="18" height="14" viewBox="0 0 18 14">
    <path d="M7.56,4.757,4.432,8H.844A.86.86,0,0,0,0,8.875v5.25A.86.86,0,0,0,.844,15H4.432L7.56,18.243A.841.841,0,0,0,9,17.625V5.376A.841.841,0,0,0,7.56,4.757Zm8.67,6.743,1.6-1.664a.6.6,0,0,0,0-.832l-.8-.832a.553.553,0,0,0-.8,0l-1.6,1.664-1.6-1.664a.553.553,0,0,0-.8,0l-.8.832a.6.6,0,0,0,0,.832l1.6,1.664-1.6,1.664a.6.6,0,0,0,0,.832l.8.832a.553.553,0,0,0,.8,0l1.6-1.664,1.6,1.664a.553.553,0,0,0,.8,0l.8-.832a.6.6,0,0,0,0-.832Z" transform="translate(0 -4.5)" />
</svg>