<?xml version="1.0" standalone="no"?>
<!DOCTYPE svg PUBLIC "-//W3C//DTD SVG 20010904//EN"
 "http://www.w3.org/TR/2001/REC-SVG-20010904/DTD/svg10.dtd">
<svg version="1.0" xmlns="http://www.w3.org/2000/svg"
 width="700.000000pt" height="700.000000pt" viewBox="0 0 700.000000 700.000000"
 preserveAspectRatio="xMidYMid meet">
<metadata>
Created by potrace 1.14, written by Peter Selinger 2001-2017
</metadata>
<g transform="translate(0.000000,700.000000) scale(0.100000,-0.100000)"
fill="#000000" stroke="none">
<path d="M2669 6996 c-2 -2 -35 -6 -74 -9 -116 -10 -203 -24 -335 -53 -41 -9
-79 -17 -85 -19 -69 -15 -238 -68 -339 -107 -487 -187 -940 -528 -1254 -946
-64 -86 -162 -228 -162 -235 0 -3 -18 -35 -40 -71 -155 -256 -286 -622 -339
-951 -34 -206 -39 -276 -35 -510 3 -225 4 -239 29 -406 125 -814 612 -1548
1318 -1989 94 -59 302 -169 372 -197 17 -7 50 -21 75 -31 54 -23 281 -100 313
-106 12 -2 60 -14 107 -25 92 -22 115 -26 205 -40 170 -27 267 -33 465 -33 97
1 189 3 205 6 17 2 59 7 95 11 75 7 204 29 305 51 39 9 78 17 88 19 137 28
509 178 681 274 l69 39 745 -745 c410 -410 767 -763 795 -785 69 -54 178 -108
252 -124 59 -13 187 -15 240 -4 262 53 478 250 554 505 57 193 17 393 -110
556 -24 30 -375 386 -781 792 -447 448 -735 743 -731 750 4 7 17 29 30 49 12
20 50 90 84 155 164 316 272 670 305 1008 3 39 8 79 10 90 6 26 5 414 0 440
-2 11 -7 52 -10 90 -4 39 -9 77 -11 85 -2 8 -6 35 -9 60 -9 68 -18 113 -46
229 -87 357 -252 706 -475 1011 -291 396 -710 733 -1150 924 -60 26 -118 52
-127 57 -10 5 -23 9 -29 9 -6 0 -25 6 -42 14 -18 7 -66 23 -107 36 -41 12 -86
25 -100 30 -24 8 -97 25 -148 35 -13 2 -31 6 -40 9 -9 3 -37 8 -62 12 -25 3
-52 7 -60 9 -8 2 -37 6 -65 10 -27 3 -63 9 -80 11 -36 6 -491 15 -496 10z
m446 -902 c230 -30 424 -89 630 -191 257 -127 495 -322 687 -560 33 -42 138
-202 138 -212 0 -5 4 -11 8 -13 28 -11 189 -399 207 -501 3 -12 9 -42 15 -67
47 -214 58 -516 24 -706 -39 -222 -90 -386 -174 -562 -196 -408 -513 -726
-921 -926 -110 -54 -267 -115 -339 -131 -8 -2 -55 -13 -105 -24 -349 -76 -728
-54 -1060 63 -125 44 -139 50 -254 109 -385 197 -681 497 -876 885 -30 60 -55
113 -55 117 0 4 -7 21 -14 38 -18 40 -73 205 -80 244 -3 15 -12 62 -21 103
-25 123 -30 186 -30 370 0 155 7 263 20 325 3 11 7 31 9 45 24 144 93 351 166
500 223 453 617 811 1085 985 93 35 250 79 320 90 16 3 41 7 55 10 14 2 47 7
75 10 27 3 51 8 53 9 9 9 352 2 437 -10z"/>
<path d="M2847 5574 c-1 -1 -43 -4 -93 -8 -462 -31 -892 -282 -1146 -671 -47
-72 -129 -227 -123 -233 2 -2 34 21 72 51 185 149 417 269 672 349 35 11 73
22 85 24 18 4 68 15 131 28 11 2 45 7 75 11 30 4 64 9 75 12 39 8 321 10 395
2 148 -16 207 -26 320 -54 357 -89 664 -262 938 -530 62 -60 115 -111 116
-113 5 -4 -37 122 -59 178 -103 269 -305 522 -541 680 -205 137 -401 214 -644
254 -51 9 -268 25 -273 20z"/>
</g>
</svg>
