<svg xmlns="http://www.w3.org/2000/svg" width="359.999" height="273" viewBox="0 0 359.999 273"><g transform="translate(-310.915 -603)"><path d="M.431,223.33C3.693,247.1,24.164,264.19,24.164,264.19h297.9s10.64-16.384,14.457-40.861c.231-1.505.44-3.031.625-4.6,27.641-85.134-18.1-107.827-51.663-108.456-20.413-.382-51.316-9.259-77.315-26.539a201.708,201.708,0,0,1-17.765-13.991,99.873,99.873,0,0,1-22.183-29.725C146.377-6.079,80.742-9.564,53.262,15.377S38.424,99.552,38.424,99.552c5.528,30.385-9.542,64.41-28.266,88.279C1.021,200.389-1.038,212.545.431,223.33Z" transform="translate(325.263 603)" fill="#cdf2f7"/><path d="M7.892,216.6c2.926,23.8,21.288,40.911,21.288,40.911H296.4s9.544-16.4,12.968-40.911Z" transform="translate(353.317 609.675)" fill="#9dd"/><path d="M35.611,233.629S25.2,219.8,31.459,204.655a30.62,30.62,0,0,0-1.881-27.327s12.838,9.908,13.175,23.875-10.466,16.077-4.442,33.007Z" transform="translate(597.418 608.406)" fill="#4c857a"/><path d="M51.358,234.429s8-17.691-2.523-28.858-5.73-22.361-5.73-22.361-11.717,16.2-.388,28.564,5.947,25.262,5.947,25.262Z" transform="translate(577.222 608.596)" fill="#5ea49b"/><path d="M25.031,234.638s-1.89-15.2,6.3-25.672,1.89-21.684-1.134-24.426c0,0,2.845,8.848-4.372,14.456S17.6,219.683,23.267,234.2Z" transform="translate(615.071 608.639)" fill="#5ea49b"/><path d="M47.511,230.294l-.4,3.664-1.489,13.586H27.989l-1.5-13.586-.408-3.664Z" transform="translate(596.193 610.117)" fill="#6b4e2f"/><path d="M47.511,230.294l-.4,3.664H26.485l-.408-3.664Z" transform="translate(596.193 610.117)" fill="#cfd1d2"/><path d="M49.611,232.288H24.418l-.757-7.976H50.367Z" transform="translate(595.858 609.924)" fill="#6b4e2f"/><path d="M150.495,202.522l7.855,43.794h2.843l-7.756-63.422h-6.462l2.9,16.175H119.554l2.689-13.746-5.428-2.941-9.824,66.364h2.843l3.727-19.048,21.087,1.972.275-2.884-20.8-1.945,4.757-24.318Z" transform="translate(398.731 608.569)" fill="#434244"/><path d="M137.547,250.17h2.844l-9.824-66.363-5.428,2.941,3.077,15.727H97.632l2.581-14.385H93.749l-7.756,63.423h2.843l8.142-45.393h31.949Z" transform="translate(441.317 608.615)" fill="#59595b"/><path d="M83.168,127.392l9.8-6.359s8.7-2.755,11.843,6.675c2.747,8.735,2.73,61.082-11.008,66.414S75.931,171.1,75.931,171.1Z" transform="translate(485.869 606.686)" fill="#e86138"/><path d="M81.006,185.022s.842-37.793,21.968-55.854c25.828-19.392,26.339-.386,19.649,12.16-7.25,14.071-7.776,33.495-1.929,50.082Z" transform="translate(460.623 606.697)" fill="#d35b30"/><path d="M99.1,179.728l-15.014,6.9s-1.962,5.993,7.431,8.8,56.2-.415,62.156-2.353,6.581-6.909,6.581-6.909-5.338-4.434-16.273-4.919S99.1,179.728,99.1,179.728Z" transform="translate(423.641 608.565)" fill="#e86138"/><path d="M154.3,180.109c-10.3-4.564-25.254-5.678-42.18-3.485-20.394,2.281-30.634,12.2-19.49,15.664s28.2.452,36.752-3.194,26.394-8.14,32.222-5.019C161.609,184.074,159.453,181.97,154.3,180.109Z" transform="translate(417.994 608.434)" fill="#bf4925"/><path d="M83.9,253.475,55.13,163.042H47.573l32.5,90.433Z" transform="translate(537.404 607.944)" fill="#7f5e40"/><path d="M203.875,253.475l28.771-90.433H240.2l-32.5,90.433Z" transform="translate(219.145 607.944)" fill="#7f5e40"/><path d="M234.812,159.832H50.923a3.314,3.314,0,1,0,0,6.628H234.812a3.314,3.314,0,1,0,0-6.628Z" transform="translate(383.183 607.957)" fill="#b8996e"/><path d="M20.328,33.463c-2.94-.08-3.067-5.234-2.717-9.253l-6.528,4.763L0,12.5,8.742,0,25.225,18.654S25.921,33.615,20.328,33.463Z" transform="translate(491.414 773.928) rotate(176)" fill="#ffc1ac" stroke="#855a4c" stroke-miterlimit="10" stroke-width="1"/><path d="M3.559.347h0A5.463,5.463,0,0,0,.439,3.3,5.391,5.391,0,0,0,.446,7.581l11.87,28.552,7.007-1.9L10.728,3.758A5.474,5.474,0,0,0,7.877.538,5.555,5.555,0,0,0,3.559.347Z" transform="translate(489.952 770.529) rotate(176)" fill="#1f2f6d"/><path d="M39.586,13.142a20.541,20.541,0,0,0-26.193-11.9A20.139,20.139,0,0,0,1.21,27.043,20.536,20.536,0,0,0,27.22,39.333c.155-.054.311-.111.466-.168A20.272,20.272,0,0,0,39.1,28.6a19.991,19.991,0,0,0,.491-15.462Z" transform="translate(483.944 736.83) rotate(176)" fill="#cdf2f7"/><path d="M32.329,45.769A24,24,0,0,1,1.545,31.95,23.526,23.526,0,0,1,15.461,1.515,24,24,0,0,1,46.245,15.334,23.526,23.526,0,0,1,32.329,45.769Zm10.677-29.23a20.541,20.541,0,0,0-26.193-11.9A20.139,20.139,0,0,0,4.63,30.439,20.535,20.535,0,0,0,30.64,42.73c.155-.054.31-.111.466-.168A20.271,20.271,0,0,0,42.515,32a19.99,19.99,0,0,0,.491-15.462Z" transform="translate(487.597 739.985) rotate(176)" fill="#1f2f6d"/><path d="M17.674,7.407s2.854.07,3.785,1.5-.795,3.444-.795,3.444,3.026-.661,2.759,1.6c-.291,2.475-11.255,9.354-15.628,8.267C2.293,20.846-.471,7.619.066,3.475.359,1.214,10.574.39,12.419.073,14.347-.259,18.2.532,15.207,2.65,15.207,2.65,21.619,2.744,17.674,7.407Z" transform="translate(491.404 764.059) rotate(176)" fill="#ffc1ac" stroke="#855a4c" stroke-miterlimit="10" stroke-width="1"/><path d="M98.276,94.845S65.61,44.8,62.669,42.374,19.147,76.385,19.147,76.385L0,56.431S35.01,13.965,58.875,1.376c18.383-9.7,45.546,34.692,52.666,45.3S123.736,114.66,98.276,94.845Z" transform="translate(487.729 830.524) rotate(176)" fill="#756666" stroke="#1d262d" stroke-miterlimit="10" stroke-width="1"/><path d="M13.68,0c-1.119.5-2.237.954-3.349,1.415S8.095,2.3,6.961,2.687c-1.127.411-2.276.75-3.43,1.079S1.2,4.35,0,4.622a15.91,15.91,0,0,0,3.677-.21,21.544,21.544,0,0,0,3.57-.926A21.643,21.643,0,0,0,13.68,0Z" transform="translate(483.588 752.245) rotate(176)" fill="#855a4c"/><path d="M0,3.238A17.629,17.629,0,0,0,6.778,2.6,24.951,24.951,0,0,0,13.051,0c-2.206.56-4.341,1.208-6.5,1.786A62.409,62.409,0,0,1,0,3.238Z" transform="translate(486.244 756.603) rotate(176)" fill="#855a4c"/><path d="M0,2.506a14.482,14.482,0,0,0,4.72-.647A17.833,17.833,0,0,0,9.09,0,33.407,33.407,0,0,0,4.48,1.045C2.977,1.488,1.5,1.944,0,2.506Z" transform="translate(485.107 761.816) rotate(176)" fill="#855a4c"/><path d="M0,25.809c.508.225,35.029,16.728,68.559,9.072l-6-24.065L19.818,0Z" transform="translate(398.394 757.106) rotate(176)" fill="#1d262d"/><path d="M51.084,97.774l3.486,41.333-43.322.115s6.954-19.364,8.16-20.963c0,0-6.394-9.3-7.675-24.7C11.514,90.933,0,0,0,0L38.409.032S52.628,83.08,51.084,97.774Z" transform="translate(417.494 868.944) rotate(176)" fill="#756666"/><path d="M8.039,61.684,4.333,30.968.546.262.292.547,38.7.65,38.377.379Q42.438,24.7,45.984,49.11c1.162,8.136,2.335,16.272,3.3,24.43q.388,3.057.7,6.12c.215,2.042.453,4.082.6,6.127.169,2.044.367,4.088.427,6.134.032,1.021.126,2.048.107,3.064l-.09,3.045,0,.053v.011L54.6,139.421l.262-.283-21.661.1-21.66.156.117.163q1.88-5.3,3.825-10.581l1.987-5.263a45.318,45.318,0,0,1,2.231-5.16,45.37,45.37,0,0,0-2.288,5.138l-2.046,5.243q-2.011,5.256-3.942,10.541l-.06.163h.177l21.661.041,21.661-.017h.285l-.023-.283L51.717,98.04V98.1l.106-3.115c.023-1.037-.067-2.062-.1-3.094-.053-2.064-.243-4.113-.406-6.165-.144-2.054-.374-4.1-.582-6.145s-.426-4.092-.679-6.133c-.952-8.171-2.052-16.322-3.243-24.459Q43.217,24.585,39.025.272L38.978,0H38.7L.291.039H0L.037.324,4,31.009Z" transform="translate(417.806 869.216) rotate(176)" fill="#1d262d"/><path d="M0,22.655s4.862,2.032,17.822,4.524c17.215,3.309,32.71-2.247,32.616-6.353C50.231,11.757,2.152-9.875,1.8,5.188Z" transform="translate(379.113 772.329) rotate(176)" fill="#ee704f"/><path d="M29.637,53.247l10.691-36.13L8.9,0,0,30.932S16.575,57.764,29.637,53.247Z" transform="translate(375.391 760.212) rotate(176)" fill="#ffc1ac" stroke="#855a4c" stroke-miterlimit="10" stroke-width="1"/><path d="M8.984,9.88s15.6-4.272,12.178-8.9S0,9.622,0,9.622Z" transform="translate(337.513 694.347) rotate(176)" fill="#564242"/><path d="M56.862,58.966c2.7-20.2-7.49-42.159-16.334-52.559C34.641-.516,8.813-2.875,5.372,4.637-.562,17.593-.307,60.765.3,70.583s29.2,13.919,42.01,12.1S55.389,69.972,56.862,58.966Z" transform="translate(396.497 745.653) rotate(176)" fill="#ffc1ac"/><path d="M32.264,1.912C22.358-1.071,7.886-.853,5.372,4.637-.562,17.593-.307,60.766.3,70.585" transform="translate(396.484 745.444) rotate(176)" fill="#ffc1ac"/><path d="M32.514,2.139A46.7,46.7,0,0,0,20.742.052a38.9,38.9,0,0,0-6.009.154A20.171,20.171,0,0,0,8.857,1.624a8.158,8.158,0,0,0-2.582,1.7,4.981,4.981,0,0,0-.928,1.288c-.213.469-.366.937-.552,1.405L4.262,7.418c-.151.475-.266.959-.4,1.438-.244.963-.561,1.914-.727,2.891l-.59,2.916-.464,2.933c-.336,1.953-.51,3.923-.764,5.884C.532,31.348.168,39.244.04,47.139c-.1,7.894-.049,15.8.509,23.673Q.384,64.895.468,58.98C.5,55.037.561,51.094.7,47.155.963,39.277,1.32,31.4,2.166,23.568c.24-1.952.4-3.917.721-5.855L3.329,14.8l.565-2.889c.159-.971.464-1.9.7-2.852.129-.471.24-.95.384-1.415l.509-1.366c.174-.45.328-.924.519-1.354a4.516,4.516,0,0,1,.788-1.115A7.487,7.487,0,0,1,9.131,2.214,19.591,19.591,0,0,1,14.8.736a39.238,39.238,0,0,1,5.93-.271A48.935,48.935,0,0,1,32.514,2.139Z" transform="translate(396.749 745.652) rotate(176)" fill="#855a4c"/><path d="M3.183.367,9.417,0l7.8.738S23.1,35.394,14.42,41.9-1.446,41.886.25,32.349,5.694,11.605,3.183.367Z" transform="translate(350.211 709.156) rotate(176)" fill="#ad6800"/><path d="M20.8,8.493c-1.782,2.907-6.8,2.133-8.194,1.853-1.4.278-6.41,1.043-8.2-1.867C1.632,3.954,0,4.841,0,4.841S1.85-3.37,12.6,1.6C23.344-3.352,25.208,4.862,25.208,4.862S23.574,3.972,20.8,8.493Z" transform="translate(391.212 730.689) rotate(176)" fill="#ad6800"/><path d="M11.708,1.37S3.7-1.062.8.555,3.517,12.807,6.964,19.6" transform="translate(385.008 721.418) rotate(176)" fill="#ffc1ac"/><path d="M12.14,1.737A27.125,27.125,0,0,0,4.262.007,9.206,9.206,0,0,0,2.178.162,4.027,4.027,0,0,0,1.135.515a1.8,1.8,0,0,0-.867.892A4.23,4.23,0,0,0,.057,3.58a12.622,12.622,0,0,0,.426,2,43.9,43.9,0,0,0,3.085,7.391c1.194,2.378,2.485,4.7,3.828,6.994L4.125,12.717A61.616,61.616,0,0,1,1.294,5.362,13.429,13.429,0,0,1,.9,3.483a3.5,3.5,0,0,1,.125-1.735.957.957,0,0,1,.488-.509,3.781,3.781,0,0,1,.841-.3,8.456,8.456,0,0,1,1.9-.2,23.819,23.819,0,0,1,3.941.3C9.516,1.218,10.829,1.461,12.14,1.737Z" transform="translate(385.464 721.753) rotate(176)" fill="#855a4c"/><path d="M0,4.457C.061,1.961,1.222-.034,2.594,0S5.03,2.085,4.971,4.58,3.752,9.07,2.38,9.036-.057,6.952,0,4.457Z" transform="translate(365.555 706.965) rotate(176)" fill="#1d262d"/><path d="M0,4.456C.061,1.961,1.222-.034,2.594,0S5.03,2.085,4.971,4.58,3.752,9.07,2.38,9.036-.056,6.952,0,4.456Z" transform="translate(384.609 706.091) rotate(176)" fill="#1d262d"/><path d="M11.778,1.114S5,11.776,0,0A16.4,16.4,0,0,0,11.778,1.114Z" transform="translate(367.73 696.65) rotate(176)" fill="#ad6800"/><path d="M11.778,1.114S5,11.776,0,0A16.4,16.4,0,0,0,11.778,1.114Z" transform="translate(387.575 697.078) rotate(176)" fill="#ad6800"/><path d="M0,1.5S10.666-3.547,15.173,4.87,11.1,25.218,1.17,12.9" transform="translate(345.37 717.223) rotate(176)" fill="#ffc1ac"/><path d="M0,1.727A18.872,18.872,0,0,1,5.408.478a11.13,11.13,0,0,1,5.361.8A8.517,8.517,0,0,1,14.621,4.89a10.091,10.091,0,0,1-.011,10.169,6.125,6.125,0,0,1-4.156,2.951,7.411,7.411,0,0,1-5.116-1.252A19.188,19.188,0,0,1,1.17,13.129a17.236,17.236,0,0,0,3.923,4,7.978,7.978,0,0,0,5.466,1.57,6.79,6.79,0,0,0,4.728-3.214,9.956,9.956,0,0,0,1.532-5.49,10.767,10.767,0,0,0-1.554-5.473A8.776,8.776,0,0,0,11,.745,11.173,11.173,0,0,0,5.37.119,17.546,17.546,0,0,0,0,1.727Z" transform="translate(345.386 717.448) rotate(176)" fill="#855a4c"/><path d="M12.123,3.358a8.788,8.788,0,0,1-3.031,2.25,4.519,4.519,0,0,1-3.562.024A7.556,7.556,0,0,1,2.679,3.34c-.358-.516-.755-1-1.092-1.531L.617.182.092.546A12.992,12.992,0,0,0,2.113,2.181a9.015,9.015,0,0,0,2.353,1.11,5.644,5.644,0,0,0,2.6.194,4.933,4.933,0,0,0,2.262-1.17,5.242,5.242,0,0,1-2.3.9,5.871,5.871,0,0,1-2.409-.353A9.292,9.292,0,0,1,2.448,1.692,12.435,12.435,0,0,1,.566.11L.556.1A.325.325,0,0,0,.131.062.316.316,0,0,0,.041.475l.965,1.7c.329.563.767,1.063,1.151,1.592A8.169,8.169,0,0,0,5.311,6.182a4.919,4.919,0,0,0,3.944-.229,7.051,7.051,0,0,0,1.6-1.134,7.6,7.6,0,0,0,1.265-1.462Z" transform="translate(343.054 707.194) rotate(176)" fill="#855a4c"/><path d="M0,0,68.41,1.961S64.568,44.024,31.247,42.584C1.317,41.29,0,0,0,0Z" transform="translate(396.258 682.474) rotate(176)" fill="#564242"/><path d="M5.708,2.826A2.845,2.845,0,0,0,2.852,0,2.833,2.833,0,0,0,0,2.821,2.845,2.845,0,0,0,2.856,5.648,2.833,2.833,0,0,0,5.708,2.826Z" transform="translate(363.83 644.126) rotate(176)" fill="#564242"/><path d="M16.293,11.739S-7.1,2.509,2.175,1.155C17.4-1.068,39.438-1.436,54.241,12.826Z" transform="translate(413.322 692.87) rotate(176)" fill="#564242"/><path d="M28.9,42.366C1.257,38.715,0,0,0,0L37.944,1.088h0S42.127,21.019,28.9,42.366Z" transform="translate(396.26 682.474) rotate(176)" fill="#756666"/><path d="M58.8,148.275,17.722,137.619l5.614-18.678-10.827-13.87L0,0,75.552.063S75.945,64.9,74.587,89.5c-1.076,19.485-.608,35.892-14.271,40.385Z" transform="translate(396.679 870.434) rotate(176)" fill="#867575"/><path d="M75.932.4,57.044.241Q47.6.147,38.155.13L.379,0H0L.043.374,3.1,26.65c1,8.761,2.1,17.51,3.155,26.264l6.394,52.519.008.066.04.052q5.423,6.928,10.9,13.816l-.025-.133L18.1,137.955l5.758-18.636.022-.072-.047-.062q-5.348-6.985-10.757-13.923l.048.117L7.01,52.828C5.982,44.07,5,35.308,3.911,26.557L.714.3.379.67,38.156.6Q47.6.6,57.044.525Z" transform="translate(396.928 870.703) rotate(176)" fill="#1d262d"/><path d="M17.082,21.477l0-5.846s3.882,3.944,4.546,11.956,8.6,10.791,12.762,10.794l0-2.626s-8.213-.509-9.972-10.687S23.2,6.325,17.068,4.588c0,0-.488-4.012-8.539-4.554C3.943-.276,0,1.542,0,6.739L.012,21.463Z" transform="translate(454.802 829.221) rotate(176)" fill="#1d262d"/><path d="M35.751,28.372c5.084-2.609,27.9-7.387,45.879,3.906,15.235,9.571,24.283,32.948,27.594,58.478,2.29,17.658,13.174,18.044,18.358,17.277s12.278-2.6,6.419-37.742S109.182,10.964,90.928,5.2s-40.953-10.8-70.022,8.474c-6.5,4.309-7.6,7.589-11.292,5.831s-6.59.461-5.646,2.916c0,0-6.359.131-2.976,4.589,0,0-2.23,4.346,3.24,5.98,0,0-2.586,2.954,3.97,5.52s14.159-1.3,15.558-1.3a14.677,14.677,0,0,1,2.97,3.9,3.751,3.751,0,0,0,2.6-4.379C28.987,33.835,30.668,30.981,35.751,28.372Z" transform="translate(461.26 853.686) rotate(176)" fill="#ffc1ac" stroke="#855a4c" stroke-miterlimit="10" stroke-width="1"/><path d="M0,12.536,11.739,34.958a47.742,47.742,0,0,1,37.615-2.2C69.986,40.3,84,65.625,86.055,89.652c1.786,20.869,10.66,23.208,19.325,22.555,11.114-.839,15.482-13.191,7.891-48.089S80.856,4.933,52.239.586C27.38-3.191,0,12.536,0,12.536Z" transform="translate(440.078 857.462) rotate(176)" fill="#867575"/><path d="M113.784,64.445l-1.1-4.466c-.191-.742-.348-1.494-.567-2.229l-.7-2.193c-.486-1.455-.887-2.941-1.444-4.371l-1.7-4.285c-.145-.356-.275-.718-.432-1.068l-.5-1.04-.995-2.081-.995-2.082c-.338-.691-.747-1.345-1.118-2.019-.772-1.331-1.489-2.7-2.307-4l-2.574-3.842a84.857,84.857,0,0,0-12.321-13.79,73.373,73.373,0,0,0-15.4-10.337A62,62,0,0,0,54,.809a60.372,60.372,0,0,0-18.6-.171A104.827,104.827,0,0,0,.318,12.541L0,12.712l.172.327L11.963,35.433l.151.287.3-.158a42.255,42.255,0,0,1,9.219-3.483,47.807,47.807,0,0,1,9.784-1.508,46.811,46.811,0,0,1,19.443,3.161A46.731,46.731,0,0,1,67.036,44.92,67.9,67.9,0,0,1,78.375,61.084,68,68,0,0,0,67.228,44.742a45.794,45.794,0,0,0-16.2-11.434,47.323,47.323,0,0,0-19.644-3.283,48.39,48.39,0,0,0-9.907,1.482,42.785,42.785,0,0,0-9.391,3.5l.448.13L.847,12.694l-.146.5a114.041,114.041,0,0,1,16.9-7.37A97.007,97.007,0,0,1,35.5,1.408a59.622,59.622,0,0,1,18.376.085A61.342,61.342,0,0,1,71.372,7.188,72.8,72.8,0,0,1,86.69,17.372,84.379,84.379,0,0,1,99,31.022,91.75,91.75,0,0,1,108.057,47l1.748,4.253c.575,1.421.994,2.9,1.5,4.345l.727,2.181c.229.731.4,1.48.6,2.219Z" transform="translate(440.61 857.756) rotate(176)" fill="#1d262d"/><path d="M13.581,1.067a17.646,17.646,0,0,1-3.444,1.262,11.886,11.886,0,0,1-3.55.352,9.342,9.342,0,0,1-3.444-.813A15.822,15.822,0,0,1,0,0,14.483,14.483,0,0,0,1.282,1.37,8.527,8.527,0,0,0,2.846,2.46a8.861,8.861,0,0,0,1.777.758,9.934,9.934,0,0,0,1.917.308A10.048,10.048,0,0,0,13.581,1.067Z" transform="translate(455.159 831.594) rotate(176)" fill="#855a4c"/><path d="M15.458,2.353a24.338,24.338,0,0,1-4.014.618,19.414,19.414,0,0,1-3.992-.134A15.381,15.381,0,0,1,3.6,1.845,21.462,21.462,0,0,1,0,0,11.914,11.914,0,0,0,3.33,2.448a13.549,13.549,0,0,0,1.946.793,16.483,16.483,0,0,0,2.061.433,13.845,13.845,0,0,0,8.121-1.322Z" transform="translate(457.801 826.809) rotate(176)" fill="#855a4c"/><path d="M14.106,1.282A19.812,19.812,0,0,1,10.521,2a17,17,0,0,1-3.593.03,16.369,16.369,0,0,1-3.52-.691A26.215,26.215,0,0,1,0,0,16.815,16.815,0,0,0,1.5,1.1a11.381,11.381,0,0,0,1.677.854,12.019,12.019,0,0,0,3.673.914,12.376,12.376,0,0,0,3.777-.223,10.463,10.463,0,0,0,3.477-1.367Z" transform="translate(454.177 821.244) rotate(176)" fill="#855a4c"/></g></svg>