<svg xmlns="http://www.w3.org/2000/svg" width="280" height="267" viewBox="0 0 280 267"><g transform="translate(-860 -37)"><path d="M274.954,199.909c-4.147,8.961-11.165,16.981-20.328,23.847-45.3,34.054-142.85,40.676-201.37,0A110.706,110.706,0,0,1,27.91,199.727C8.945,174.786-2.278,136.631.39,100.6,1.492,85.809,3.145,67.1,16.108,50.843,42.265,18.1,90.52,25.508,92.956,25.933c33.784,5.741,34.364,26.854,83.228,59.3,54.344,36.119,85.286,31.016,98.626,63.277C280.927,163.272,282.436,183.686,274.954,199.909Z" transform="translate(860 52.166)" fill="#feea00"/><path d="M65.642,178.924l11.335-53.292A44.274,44.274,0,0,1,100.155,95.1l33.45-16.766,34.319,14.953a47,47,0,0,1,26.946,34.088l10.315,51.547Z" transform="translate(895.207 84.716)" fill="#3d71f2"/><path d="M96.08,134.616s8.947-12.287,13.249-11.5,12.252,15.48,12.252,15.48H157.06l1-9.406s22.7,4.311,30.8,22.469H100.07Z" transform="translate(911.534 111.983)" fill="#ffb0b3"/><path d="M137.875,140.458a1.107,1.107,0,0,1-1.082-1.023l-3.081-31.725a1.127,1.127,0,0,1,.971-1.249,1.1,1.1,0,0,1,1.192,1.017l3.081,31.725a1.127,1.127,0,0,1-.971,1.249C137.949,140.454,137.912,140.458,137.875,140.458Z" transform="translate(931.715 101.853)" fill="#002d53"/><path d="M99.57,80.251v24.69s-1.684,15.284,7.669,13.912,19.275-28.434,19.275-28.434L124.971,66.4Z" transform="translate(913.342 77.445)" fill="#ffb0b3"/><path d="M126.13,84.988,99.537,102.849v-22.6L124.912,66.4Z" transform="translate(913.388 77.44)" fill="#ff7a72"/><path d="M36.831.015C56.95-.3,73.083,10.469,72.865,24.06s-16.7,24.861-36.823,25.173S-.21,38.779.008,25.188,16.712.326,36.831.015Z" transform="translate(980.809 156.224) rotate(-68.836)" fill="#ffb3ae"/><path d="M141.045,74.612a53.445,53.445,0,0,1-20.129-24.837s-33.3,27.3-41.152,10.581,11.6-29.915,13.842-18.55c0,0,17.935-30.438,47.439-10.189S141.045,74.612,141.045,74.612Z" transform="translate(901.785 52.009)" fill="#002d53"/><path d="M126.386,65.468c-1.9,5.535-5.936,9.081-9.024,7.921S113.307,66.8,115.2,61.266s5.936-9.081,9.024-7.921S128.282,59.933,126.386,65.468Z" transform="translate(921.27 69.352)" fill="#ffb3ae"/><rect width="31.803" height="45.212" transform="translate(900.305 218.438)" fill="#6190e5"/><path d="M21.049,132.636a7.128,7.128,0,0,0,4.516,6.706,6.621,6.621,0,0,0,7.554-2.177v9.588a13.5,13.5,0,0,1-5.248,1.033c-7.994,0-14.474-6.788-14.474-15.162s6.48-15.162,14.474-15.162a13.5,13.5,0,0,1,5.248,1.034v9.588a6.621,6.621,0,0,0-7.564-2.173,7.13,7.13,0,0,0-4.506,6.725Z" transform="translate(867.186 108.561)" fill="#6190e5"/><path d="M38.538,147.657c3.911-6.257,9.6-11.316,12.473-18.165,3.946-9.416,1.869-20.5,4.881-30.29C60.262,85,74.076,76.637,82.175,64.363A49.141,49.141,0,0,0,85.641,18C82.573,11.318,77.75,5.273,71.309,2.2a25.371,25.371,0,0,0-24.131,1.92A35.25,35.25,0,0,0,32.648,24.89c-5.576,20.874,5.206,43.379.927,64.586-2.545,12.61-10.216,23.578-12.8,36.179a47.412,47.412,0,0,0,5.272,32.3c1.583,2.817,5.991,11.72,8.346,5.6.892-2.321.343-5.174.825-7.619a24.824,24.824,0,0,1,3.325-8.279Z" transform="translate(870.682 36.986)" fill="#f7edbc"/><rect width="248.711" height="12.28" transform="translate(882.66 263.64)" fill="#d18c7e"/><path d="M236.034,148.466c-45.3,34.054-142.85,40.676-201.37,0Z" transform="translate(878.592 127.455)" fill="#bc7f72"/><path d="M136.364,161.155a4.724,4.724,0,0,1-.728,4.167,4.264,4.264,0,0,1-3.69,1.733h-73.7a7.868,7.868,0,0,1-7.182-5.9L37.619,103.72a4.724,4.724,0,0,1,.728-4.167,4.264,4.264,0,0,1,3.69-1.733h73.7a7.868,7.868,0,0,1,7.181,5.9Z" transform="translate(880.071 96.585)" fill="#fff"/><path d="M80.134,123.051a7.136,7.136,0,0,1-1.3,5.976,6.452,6.452,0,0,1-5.331,2.525,10.339,10.339,0,0,1-9.6-8.5,7.136,7.136,0,0,1,1.3-5.976,6.452,6.452,0,0,1,5.331-2.525,10.339,10.339,0,0,1,9.6,8.5Z" transform="translate(894.176 106.783)" fill="#2b2b2b"/></g></svg>